<svg xmlns="http://www.w3.org/2000/svg" width="1000.614" height="652.589" viewBox="0 0 1000.614 652.589"><defs><style>.a{fill:#e50019;}.b{fill:#ed1c24;}.c{fill:#123985;}.d{fill:#fff;}</style></defs><g transform="translate(104.795 -1133.581)"><path class="a" d="M171.348,16.589c5.272,9.57,39.643,156.156-10,144.616-23-5.345-27.669-40.372-58.514-30.574S32.858,140.21,9.3,96.158C-10.217,59.659-9.468-18.374,117.575,3.946Z" transform="translate(715.453 1164.463) rotate(101)"/><g transform="matrix(0.899, -0.438, 0.438, 0.899, -104.795, 1593.163)"><path class="b" d="M1.309,22.256l953.776,142.83,1.085-8.137L0,0Z" transform="translate(0 0)"/><g transform="translate(740.717 67.595)"><g transform="translate(0 0)"><path class="c" d="M195.162,109.9c-61.5,20.67-57.282,90.623-97.581,102.7C45.956,228.068,0,166.621,0,109.9S61.375,10.46,114.535,1.6C205.861-13.621,271.894,84.113,195.162,109.9Z" transform="translate(1.968 1.948)"/><path class="d" d="M83.212,218.955a58.754,58.754,0,0,0,16.9-2.519c18.933-5.672,28.483-23.654,38.6-42.69,12.18-22.926,25.982-48.914,59.048-60.027,26.887-9.038,39.471-28.339,33.654-51.628C222.377,25.9,172.808-7.833,116.179,1.605,60.306,10.917,0,55.715,0,111.852c0,35.995,17.884,73.492,44.5,93.3C56.8,214.306,69.939,218.955,83.212,218.955ZM196.5,109.987c-34.551,11.614-48.745,38.335-61.27,61.913-10.138,19.084-18.894,35.565-36.25,40.765C81.347,217.944,63.32,214.258,46.85,202,21.182,182.891,3.935,146.665,3.935,111.852c0-54.076,58.6-97.314,112.888-106.362,54.557-9.089,102.15,23.037,110.77,57.554C232.936,84.44,221.6,101.55,196.5,109.987Z"/><path class="d" d="M2.176,172.9c1.175-.887,28.784-22.261,30.358-70.278.92-28.014,18.614-59.577,44.033-78.539C94.91,10.4,125.846-3.539,169.06,7.777l.915-3.5C125.372-7.4,93.384,7.028,74.407,21.187,48.154,40.772,29.875,73.45,28.922,102.5,27.4,148.808.272,169.81,0,170.016Z" transform="translate(26.894 13.942)"/><path class="d" d="M2.186,170.1c1.069-.811,26.19-20.429,27.764-68.438.913-27.874,18.34-59.143,43.36-77.81,18.207-13.584,49-27.393,92.366-16.031l.915-3.5C121.843-7.39,89.991,6.9,71.15,20.957,44.89,40.547,27.3,72.18,26.338,101.545,24.82,147.853.248,167.036,0,167.225Z" transform="translate(20.665 8.492)"/><path class="d" d="M1.81,128.8a1.807,1.807,0,0,0,1.768-1.447c.092-.452,9.387-45.49,24.48-65.974L29.9,58.887C45.092,38.295,58.215,20.512,58.764,1.86A1.808,1.808,0,0,0,57.012,0a1.837,1.837,0,0,0-1.86,1.753C54.637,19.273,41.823,36.636,26.989,56.74l-1.841,2.494C9.58,80.363.42,124.752.037,126.632A1.811,1.811,0,0,0,1.81,128.8Z" transform="translate(6.271 20.968)"/><path class="d" d="M50.634,123.257c2.218,0,3.641-.078,3.923-.093l-.109-1.805c-.36.012-37.02,1.985-48.907-16.752-6.369-10.038-4.588-24.3,5.293-42.4C39.165,10.32,66.557,21.835,86.556,30.241c4.836,2.033,9.011,3.787,12.662,4.387,13.512,2.222,22.879.666,28.641-4.751C133.768,24.322,135.818,14.83,134.31,0l-1.8.184c1.447,14.221-.425,23.239-5.89,28.378-5.327,5.008-14.2,6.408-27.111,4.285-3.441-.566-7.525-2.283-12.254-4.27C67.788,20.39,38.365,8.02,9.249,61.345-.97,80.062-2.731,94.944,4.017,105.579,14.223,121.661,40.583,123.257,50.634,123.257Z" transform="translate(86.435 43.111)"/><path class="d" d="M41.929,176.977c.391,0,.78,0,1.176-.01l-.034-2.023c-15.411.238-26.707-4.595-33.4-14.4-20.121-29.467,6.216-94.657,6.483-95.313,11.4-26.205,24.514-42.046,38.985-47.068,15.819-5.491,30.953,2.635,42,8.566,4.491,2.41,8.37,4.493,11.637,5.394,9.939,2.74,18.059,1.9,24.13-2.489C140.1,24.43,144.262,14.216,144.952.1L142.93,0c-.459,9.4-2.778,21.891-11.212,28-5.547,4.015-13.084,4.743-22.406,2.178-3.046-.841-6.833-2.874-11.217-5.225-11.381-6.106-26.96-14.474-43.625-8.693C39.233,21.541,26.088,37.305,14.284,64.445a235.038,235.038,0,0,0-11,36.982c-5.6,27.2-4.018,47.47,4.714,60.26C14.925,171.834,26.338,176.977,41.929,176.977Z" transform="translate(67.942 32.928)"/><path class="d" d="M17.628,47.756A31.351,31.351,0,0,0,41.205,36.784h0C52.78,23.334,56.672,9.805,53.748,4.491a4.7,4.7,0,0,0-5.139-2.37A28.209,28.209,0,0,1,35.8,1.3,34.69,34.69,0,0,0,28.046.011C19.935-.358,8.36,8.957,1.022,30.36c-1.4,4.083-1.362,7.553.117,10.311,1.549,2.886,4.641,4.955,9.191,6.15A28.761,28.761,0,0,0,17.628,47.756ZM39.835,35.6c-7.289,8.469-18.7,12.188-29.046,9.47-4.046-1.061-6.755-2.829-8.056-5.256-1.232-2.3-1.232-5.281,0-8.87C9.768,10.426,20.44,1.5,27.978,1.816A33.3,33.3,0,0,1,35.358,3.05a30.19,30.19,0,0,0,13.516.86,2.89,2.89,0,0,1,3.294,1.452C54.734,10.031,50.752,22.921,39.835,35.6Z" transform="translate(106.816 90.856)"/></g></g><path class="b" d="M0,19.639,958.329,32.731V24.522L0,0Z" transform="translate(2.619 183.286)"/></g></g></svg>