<svg xmlns="http://www.w3.org/2000/svg" width="30.178" height="30.177" viewBox="0 0 30.178 30.177"><defs><style>.a{fill:#123985;}</style></defs><path class="a" d="M1538.844,96.427h-11.316a9.432,9.432,0,0,0-9.432,9.43v11.316a9.433,9.433,0,0,0,9.432,9.432h11.316a9.432,9.432,0,0,0,9.43-9.432V105.857A9.43,9.43,0,0,0,1538.844,96.427Zm6.6,20.746a6.609,6.609,0,0,1-6.6,6.6h-11.316a6.609,6.609,0,0,1-6.6-6.6V105.857a6.609,6.609,0,0,1,6.6-6.6h11.316a6.609,6.609,0,0,1,6.6,6.6Zm-12.259-13.2a7.545,7.545,0,1,0,7.545,7.545A7.546,7.546,0,0,0,1533.186,103.97Zm0,12.261a4.716,4.716,0,1,1,4.716-4.716A4.722,4.722,0,0,1,1533.186,116.231ZM1541.3,102.4a1,1,0,1,1-1,1.006A1.005,1.005,0,0,1,1541.3,102.4Z" transform="translate(-1518.096 -96.427)"/></svg>