<svg xmlns="http://www.w3.org/2000/svg" width="233.552" height="192.28" viewBox="0 0 233.552 192.28">
    <defs>
        <style>.a{fill:#ed1c24;}.b{fill:#123985;}.c{fill:#e6e7e8;}</style>
    </defs>
    <g transform="translate(-67.955 -68.96)">
        <g transform="translate(67.955 68.96)">
            <circle class="a" cx="27.943" cy="27.943" r="27.943" transform="translate(0 7.088)"/>
            <g transform="translate(14.459)">
                <path class="b" d="M294.208,181.7a59.209,59.209,0,0,1-1.791,9.129c19.145,10.265,38.162,16.558,44.742,18.734l1.054.349,2.811-8.435-1.074-.356C322.241,195.261,306.929,188.731,294.208,181.7Z" transform="translate(-121.932 -88.808)"/><path class="b" d="M238.792,149.492a67.347,67.347,0,0,0,14.336-24.277,54.76,54.76,0,0,0,2.04-22.46c13.218-7.6,29.415-14.635,48.357-20.9L304.6,81.5l-2.811-8.435-1.052.349c-7.114,2.353-28.762,9.512-49.4,21.306a156.679,156.679,0,0,0-16.808,11,73.976,73.976,0,0,1,6.417,6.261q2.677-1.984,5.614-3.926a43.9,43.9,0,0,1-1.6,13.411C237.849,111,227.654,102.3,214.728,95.726c1.018-5.237,2.856-10.07,5.662-13.434a11.362,11.362,0,0,1,9.135-4.441c3.829,0,7.251,2.055,10.172,6.106a35.446,35.446,0,0,1,5.1,11.485q3.8-2.358,7.926-4.635a42.6,42.6,0,0,0-5.817-12.048c-4.62-6.41-10.631-9.8-17.384-9.8A20.288,20.288,0,0,0,213.564,76.6c-8.15,9.765-10.092,27.642-7.8,40.254a48.564,48.564,0,0,0,3.793,11.806,63.98,63.98,0,0,1,6.105-8.777,37.491,37.491,0,0,1-1.151-4.619,51.975,51.975,0,0,1-.75-9.976,78.871,78.871,0,0,1,11.759,8c-11.017,10.338-17.644,21.371-19.757,32.989a62.228,62.228,0,0,0-.665,15.833c-.709.3-1.413.6-2.1.882a119.951,119.951,0,0,1-62.385,6.792c-13.681-2.22-25.222-6.818-33.374-13.3-8.523-6.772-12.844-15.158-12.844-24.924s4.321-18.152,12.844-24.924c8.153-6.478,19.693-11.076,33.374-13.3a120.058,120.058,0,0,1,61.832,6.581,58.293,58.293,0,0,1,1.48-8.951,129.478,129.478,0,0,0-64.736-6.406c-33.113,5.374-53.684,23.382-53.684,47s20.571,41.623,53.683,47a124.348,124.348,0,0,0,19.873,1.57,127.957,127.957,0,0,0,47.265-8.894,94.7,94.7,0,0,0,23.89-13.726q-3.678-2.928-6.866-5.94a80.531,80.531,0,0,1-9.591,6.268,51.97,51.97,0,0,1,.754-9.971,38.659,38.659,0,0,1,2.237-7.59q10.073,12.973,28.7,24.6a38.031,38.031,0,0,1-5.754,14.29c-2.921,4.052-6.343,6.106-10.172,6.106a11.363,11.363,0,0,1-9.135-4.441,27.551,27.551,0,0,1-5.038-10.67q-3.94,1.977-8.159,3.66a35.241,35.241,0,0,0,6.371,12.707,20.288,20.288,0,0,0,15.961,7.635c6.752,0,12.764-3.388,17.384-9.8,8.322-11.546,11.054-31.952,6.219-46.456-.33-.99-.688-1.966-1.061-2.934a65.482,65.482,0,0,1-6.24,10.169,47.65,47.65,0,0,1,.739,9.924Q242.423,152.323,238.792,149.492Zm-17.37-17.933a70.242,70.242,0,0,1,10.566-12.165,59.429,59.429,0,0,1,8.741,12.171,59.44,59.44,0,0,1-8.735,12.158A70.259,70.259,0,0,1,221.422,131.559Z" transform="translate(-85.504 -68.96)"/></g></g><g transform="translate(93.747 232.622)"><path class="c" d="M151.5,267.593A14.309,14.309,0,1,0,165.811,281.9,14.325,14.325,0,0,0,151.5,267.593Zm0,24.718a10.41,10.41,0,1,1,10.41-10.411A10.422,10.422,0,0,1,151.5,292.311Z" transform="translate(-105.937 -267.593)"/>
        <path class="c" d="M125.934,271.615l1.094-1.094a.4.4,0,0,0,0-.569l-2.189-2.188a.4.4,0,0,0-.569,0l-1.094,1.094a30.7,30.7,0,0,1-20.019,8.559v-8.728a.4.4,0,0,0-.4-.4h-3.1a.4.4,0,0,0-.4.4v26.445a.4.4,0,0,0,.4.4h3.1a.4.4,0,0,0,.4-.4v-8.728a30.7,30.7,0,0,1,20.019,8.559l1.094,1.094a.4.4,0,0,0,.569,0l2.189-2.188a.4.4,0,0,0,0-.569l-1.094-1.094a34.688,34.688,0,0,0-22.776-9.7v-1.191A34.691,34.691,0,0,0,125.934,271.615Z" transform="translate(-99.258 -267.602)"/><path class="c" d="M207.733,271.615l1.094-1.094a.4.4,0,0,0,0-.569l-2.189-2.188a.4.4,0,0,0-.569,0l-1.094,1.094a30.7,30.7,0,0,1-20.019,8.559v-8.728a.4.4,0,0,0-.4-.4h-3.1a.4.4,0,0,0-.4.4v26.445a.4.4,0,0,0,.4.4h3.1a.4.4,0,0,0,.4-.4v-8.728a30.7,30.7,0,0,1,20.019,8.559l1.094,1.094a.4.4,0,0,0,.569,0l2.189-2.188a.4.4,0,0,0,0-.569l-1.094-1.094a34.688,34.688,0,0,0-22.776-9.7v-1.191A34.691,34.691,0,0,0,207.733,271.615Z" transform="translate(-113.659 -267.602)"/><path class="c" d="M233.3,267.593A14.309,14.309,0,1,0,247.614,281.9,14.325,14.325,0,0,0,233.3,267.593Zm0,24.718a10.41,10.41,0,1,1,10.41-10.411A10.422,10.422,0,0,1,233.3,292.311Z" transform="translate(-120.339 -267.593)"/><path class="c" d="M289.533,292.351a33.556,33.556,0,0,0-11.392-7.3c6.536-1.291,11.963-3.672,11.963-7.524,0-6.271-14.791-9.092-25.293-9.092h-1.547a.4.4,0,0,0-.4.4v26.847h3.5a.4.4,0,0,0,.4-.4v-8.728a30.7,30.7,0,0,1,20.014,8.558l1.094,1.094a.4.4,0,0,0,.569,0l2.189-2.188a.4.4,0,0,0,0-.569Zm-3.328-14.828c-.1,1.411-7.5,4.527-19.444,4.839v-10C278.531,272.706,286.205,276.1,286.205,277.522Z" transform="translate(-128.062 -267.74)"/><path class="c" d="M317.231,267.593A14.309,14.309,0,1,0,331.54,281.9,14.324,14.324,0,0,0,317.231,267.593Zm0,24.718A10.41,10.41,0,1,1,327.64,281.9,10.422,10.422,0,0,1,317.231,292.311Z" transform="translate(-135.115 -267.593)"/></g></g></svg>