<svg xmlns="http://www.w3.org/2000/svg" width="42.156" height="289.321" viewBox="0 0 42.156 289.321"><defs><style>.a{fill:#123985;}</style></defs><g transform="translate(-50.106 -54.878)"><path class="a" d="M92.262,88.194a21.078,21.078,0,1,0-21.078,21.078A21.1,21.1,0,0,0,92.262,88.194Zm-36.41,0A15.332,15.332,0,1,1,71.184,103.53,15.35,15.35,0,0,1,55.852,88.194Z" transform="translate(0 33.795)"/><path class="a" d="M86.3,94.169l1.61,1.613a.6.6,0,0,0,.839,0l3.223-3.223a.59.59,0,0,0,0-.839l-1.61-1.613A45.229,45.229,0,0,1,77.754,60.62H90.612a.589.589,0,0,0,.59-.59V55.468a.591.591,0,0,0-.59-.59H51.66a.591.591,0,0,0-.59.59V60.03a.589.589,0,0,0,.59.59H64.517A45.229,45.229,0,0,1,51.908,90.107L50.3,91.721a.59.59,0,0,0,0,.839l3.223,3.223a.6.6,0,0,0,.839,0l1.61-1.613A51.1,51.1,0,0,0,70.26,60.62h1.752A51.1,51.1,0,0,0,86.3,94.169Z" transform="translate(0.048 0)"/><path class="a" d="M86.3,120.567l1.61,1.613a.59.59,0,0,0,.839,0l3.223-3.223a.59.59,0,0,0,0-.839l-1.61-1.61A45.249,45.249,0,0,1,77.754,87.022H90.612a.592.592,0,0,0,.59-.594V81.87a.592.592,0,0,0-.59-.594H51.66a.592.592,0,0,0-.59.594v4.558a.592.592,0,0,0,.59.594H64.517a45.249,45.249,0,0,1-12.609,29.487l-1.61,1.61a.59.59,0,0,0,0,.839l3.223,3.223a.59.59,0,0,0,.839,0l1.61-1.613A51.091,51.091,0,0,0,70.26,87.022h1.752A51.091,51.091,0,0,0,86.3,120.567Z" transform="translate(0.048 72.874)"/><path class="a" d="M92.262,114.6a21.078,21.078,0,1,0-21.078,21.078A21.1,21.1,0,0,0,92.262,114.6Zm-36.41,0a15.332,15.332,0,1,1,15.332,15.332A15.35,15.35,0,0,1,55.852,114.6Z" transform="translate(0 106.672)"/><path class="a" d="M55.967,146.963a49.44,49.44,0,0,0,10.759-16.78c1.9,9.627,5.408,17.618,11.082,17.618,9.236,0,13.391-21.785,13.391-37.252v-2.283a.591.591,0,0,0-.59-.59H51.064v5.152a.592.592,0,0,0,.594.59H64.511A45.228,45.228,0,0,1,51.906,142.9l-1.61,1.61a.59.59,0,0,0,0,.839l3.223,3.223a.586.586,0,0,0,.835,0Zm21.842-4.9c-2.08-.15-6.668-11.041-7.126-28.641h14.73C84.9,130.755,79.9,142.059,77.809,142.059Z" transform="translate(0.043 145.754)"/><path class="a" d="M92.262,141.682a21.078,21.078,0,1,0-21.078,21.074A21.1,21.1,0,0,0,92.262,141.682Zm-36.41,0a15.332,15.332,0,1,1,15.332,15.332A15.347,15.347,0,0,1,55.852,141.682Z" transform="translate(0 181.443)"/></g></svg>